<svg width="20" height="14" viewBox="0 0 20 14" fill="none" xmlns="http://www.w3.org/2000/svg">
<mask id="mask0_2_479" style="mask-type:luminance" maskUnits="userSpaceOnUse" x="0" y="0" width="20" height="14">
<path fill-rule="evenodd" clip-rule="evenodd" d="M0 0H20V13.4548H0V0Z" fill="white"/>
</mask>
<g mask="url(#mask0_2_479)">
<path fill-rule="evenodd" clip-rule="evenodd" d="M19.68 0.974474L19.0249 0.31935C18.8191 0.113334 18.5446 0 18.2516 0C17.9586 0 17.6839 0.113334 17.4781 0.31935L8.2727 9.52457L2.52131 3.77302C2.31545 3.56732 2.04082 3.45383 1.74781 3.45383C1.45496 3.45383 1.18049 3.56732 0.974474 3.77302L0.319188 4.42798C0.113171 4.63432 0 4.90912 0 5.2018C0 5.49465 0.113171 5.76928 0.319188 5.9753L6.81286 12.4686C6.82148 12.4809 6.83058 12.4922 6.84115 12.5026L7.49644 13.147C7.70229 13.3522 7.97693 13.4549 8.27221 13.4549H8.27563C8.5688 13.4549 8.84343 13.3522 9.04896 13.147L9.70441 12.4969C9.71498 12.4865 9.72392 12.4779 9.72929 12.4692L19.6799 2.51952C20.1067 2.09366 20.1067 1.40082 19.68 0.974474Z" fill="white"/>
</g>
</svg>
